<?xml version="1.0" encoding="utf-8"?>
<!-- Generator: Adobe Illustrator 18.0.0, SVG Export Plug-In . SVG Version: 6.00 Build 0)  -->
<!DOCTYPE svg PUBLIC "-//W3C//DTD SVG 1.1//EN" "http://www.w3.org/Graphics/SVG/1.1/DTD/svg11.dtd" [
	<!ENTITY st0 "fill:#333333;">
]>
<svg version="1.1" id="Layer_1" xmlns="http://www.w3.org/2000/svg" xmlns:xlink="http://www.w3.org/1999/xlink" x="0px" y="0px"
	 viewBox="0 0 50 50" style="enable-background:new 0 0 50 50;" xml:space="preserve">
<path style="&st0;" d="M38.66,48.23H11.43c-2.51,0-4.46-1.95-4.46-4.46V24.63c0-2.42,1.95-4.46,4.46-4.46h0.37v-5.2
	c0-7.25,5.85-13.19,13.1-13.19S38.1,7.72,38.1,14.97v5.2h0.46c2.42,0,4.46,1.95,4.46,4.46v19.14
	C43.03,46.28,41.07,48.23,38.66,48.23z M32.04,14.62c0-3.96-3.17-7.14-7.14-7.14s-7.14,3.17-7.14,7.14v5.55h14.27
	C32.04,20.17,32.04,14.62,32.04,14.62z M31.23,31.23c0.93-0.93,0.93-2.42,0-3.34c-0.93-0.93-2.42-0.93-3.34,0l-2.97,2.97l-2.97-2.97
	c-0.93-0.93-2.42-0.93-3.34,0c-0.93,0.93-0.93,2.42,0,3.34l2.97,2.97l-2.97,2.97c-0.93,0.93-0.93,2.42,0,3.34
	c0.93,0.93,2.42,0.93,3.34,0l2.97-2.97l2.97,2.97c0.93,0.93,2.42,0.93,3.34,0c0.93-0.93,0.93-2.42,0-3.34l-2.88-2.97L31.23,31.23z"
	/>
</svg>
