<?xml version="1.0" encoding="utf-8"?>
<!-- Generator: Adobe Illustrator 19.1.1, SVG Export Plug-In . SVG Version: 6.00 Build 0)  -->
<svg version="1.1" xmlns="http://www.w3.org/2000/svg" xmlns:xlink="http://www.w3.org/1999/xlink" x="0px" y="0px"
	 viewBox="-283 403.1 28.7 35.8" style="enable-background:new -283 403.1 28.7 35.8;" xml:space="preserve">
<style type="text/css">
	.st0{fill:#FFFFFF;}
	.st1{fill:#ED2127;}
	.st2{fill:#5B5A5C;}
</style>
<g id="Layer_2">
	<polygon class="st0" points="-262.4,403.8 -282,403.8 -282,437.2 -271.3,436.6 -255.5,436.6 -254.8,411.4 	"/>
</g>
<g id="Layer_1">
	<polygon id="XMLID_28_" class="st1" points="-262,431.6 -262,424 -268.4,424 -268.4,431.6 -271.3,431.6 -265.2,438.9 -259.1,431.6 
			"/>
	<path id="XMLID_25_" class="st2" d="M-262,403.1h-21v35h13.7l-1.3-1.5h-10.9v-32h18.4v6.9c0,0.4,0.3,0.8,0.8,0.8h6.5v24.3h-4
		l-1.3,1.5h6.8v-27.3L-262,403.1z M-261.6,410.7v-4.6l4.6,4.6H-261.6z"/>
	<path id="XMLID_16_" class="st0" d="M-279.5,417.3h-1.4v-6h2c0.7,0,1.2,0,1.4,0.1c0.3,0.1,0.6,0.3,0.9,0.6c0.2,0.3,0.4,0.7,0.4,1.2
		c0,0.4-0.1,0.7-0.2,0.9c-0.1,0.3-0.3,0.5-0.5,0.6c-0.2,0.1-0.4,0.2-0.6,0.3c-0.4,0.1-0.8,0.1-1.3,0.1h-0.7V417.3z M-280.7,417.1h1
		v-2.2h0.9c0.5,0,0.9,0,1.2-0.1c0.2,0,0.4-0.1,0.6-0.3c0.2-0.1,0.3-0.3,0.5-0.5c0.1-0.2,0.2-0.5,0.2-0.8c0-0.4-0.1-0.8-0.3-1.1
		c-0.4-0.2-0.6-0.4-0.9-0.5c-0.3,0-0.7-0.1-1.4-0.1h-1.8V417.1z M-279,414.1h-0.7v-1.8h0.7c0.4,0,0.7,0,0.9,0c0.2,0,0.4,0.1,0.5,0.3
		c0.1,0.2,0.2,0.3,0.2,0.6c0,0.2-0.1,0.4-0.1,0.5c-0.1,0.1-0.2,0.3-0.4,0.3C-278.2,414.1-278.5,414.1-279,414.1 M-279.5,413.9h0.5
		c0.4,0,0.7,0,0.9-0.1c0.1-0.1,0.2-0.1,0.3-0.2c0.1-0.1,0.1-0.2,0.1-0.4c0-0.2-0.1-0.3-0.2-0.5c0-0.1-0.2-0.1-0.3-0.2
		c-0.1,0-0.4,0-0.8,0h-0.5V413.9z"/>
	<path id="XMLID_8_" class="st0" d="M-273.2,417.2h-2.2v-5.9h2.2c0.5,0,0.9,0,1.1,0.1c0.4,0.1,0.7,0.3,0.9,0.6
		c0.3,0.3,0.4,0.6,0.6,1c0.1,0.4,0.2,0.8,0.2,1.4c0,0.5-0.1,0.9-0.2,1.3c-0.1,0.4-0.4,0.8-0.6,1.1c-0.2,0.2-0.5,0.4-0.9,0.5
		C-272.4,417.2-272.7,417.2-273.2,417.2 M-275.3,417h2.1c0.4,0,0.8,0,1-0.1c0.3-0.1,0.6-0.3,0.8-0.4c0.3-0.2,0.5-0.6,0.6-1
		c0.1-0.3,0.2-0.7,0.2-1.2s-0.1-1-0.2-1.3c-0.1-0.4-0.3-0.7-0.5-0.9c-0.2-0.2-0.5-0.4-0.8-0.5c-0.2-0.1-0.6-0.1-1.1-0.1h-2
		L-275.3,417L-275.3,417z M-273.3,416.2h-1v-4h0.6c0.5,0,0.8,0,1,0.1c0.2,0.1,0.4,0.1,0.6,0.3c0.2,0.1,0.3,0.3,0.4,0.6
		c0.1,0.3,0.1,0.6,0.1,1.1s0,0.8-0.1,1.1c-0.1,0.3-0.2,0.5-0.3,0.6s-0.3,0.2-0.5,0.3C-272.7,416.2-273,416.2-273.3,416.2
		 M-274.1,416.1h0.8c0.3,0,0.5,0,0.7-0.1c0.2,0,0.3-0.1,0.4-0.2c0.1-0.1,0.2-0.3,0.3-0.5c0.1-0.2,0.1-0.6,0.1-1s0-0.8-0.1-1
		c-0.1-0.2-0.2-0.4-0.3-0.5c-0.1-0.1-0.3-0.2-0.5-0.2c-0.2,0-0.5-0.1-0.9-0.1h-0.5V416.1z"/>
	<g id="XMLID_92_">
		<g id="XMLID_93_">
			<g id="XMLID_94_">
				<path id="XMLID_97_" class="st1" d="M-278.2,412.4c-0.1,0-0.4,0-0.8,0h-0.6v1.6h0.6c0.5,0,0.8,0,0.9-0.1
					c0.2-0.1,0.3-0.2,0.4-0.3c0.1-0.1,0.1-0.3,0.1-0.4c0-0.2-0.1-0.4-0.2-0.5C-277.9,412.6-278,412.5-278.2,412.4z"/>
				<path id="XMLID_100_" class="st1" d="M-262.3,413.4c-1.1,0-1.9-0.9-1.9-1.9v-2H-283v9.7h21.8v-5.8H-262.3z M-276.6,414.1
					c-0.1,0.2-0.3,0.4-0.5,0.6c-0.2,0.1-0.4,0.2-0.6,0.3c-0.3,0.1-0.7,0.1-1.2,0.1h-0.7v2.2h-1.2v-5.9h1.9c0.7,0,1.2,0,1.4,0.1
					c0.3,0.1,0.6,0.3,0.8,0.6c0.2,0.3,0.3,0.7,0.3,1.1C-276.4,413.6-276.4,413.9-276.6,414.1z M-270.8,415.6c-0.1,0.4-0.3,0.8-0.6,1
					c-0.2,0.2-0.5,0.3-0.8,0.5c-0.3,0.1-0.6,0.1-1,0.1h-2.2v-5.8h2.1c0.5,0,0.8,0,1.1,0.1c0.3,0.1,0.6,0.3,0.9,0.5
					c0.2,0.3,0.4,0.6,0.5,0.9c0.1,0.4,0.2,0.8,0.2,1.4C-270.6,414.8-270.6,415.2-270.8,415.6z M-265.7,412.7h-2.1v0.7h1.9v1.5h-1.9
					v2.3h-1.7v-6h3.7L-265.7,412.7L-265.7,412.7z"/>
				<path id="XMLID_103_" class="st1" d="M-272.2,412.7c-0.1-0.1-0.3-0.2-0.5-0.3c-0.2,0-0.5-0.1-1-0.1h-0.6v3.8h0.9
					c0.3,0,0.6,0,0.7-0.1c0.2,0,0.3-0.1,0.5-0.2c0.1-0.1,0.2-0.3,0.3-0.6c0.1-0.3,0.1-0.6,0.1-1.1c0-0.4,0-0.8-0.1-1
					C-272,413.1-272.1,412.9-272.2,412.7z"/>
			</g>
		</g>
	</g>
</g>
</svg>
